<svg width="186" height="15" viewBox="0 0 186 15" fill="none" xmlns="http://www.w3.org/2000/svg">
<path d="M4.23 13.8V9.31801L0 1.20001H2.61L5.4 7.01401L8.172 1.20001H10.746L6.534 9.31801V13.8H4.23Z" fill="#F6F5EF"/>
<path d="M10.493 13.8L15.101 1.20001H17.693L22.301 13.8H19.853L18.845 10.884H13.931L12.905 13.8H10.493ZM14.561 9.08401H18.215L16.379 3.84601L14.561 9.08401Z" fill="#F6F5EF"/>
<path d="M29.4494 14.016C28.1774 14.016 27.0854 13.746 26.1734 13.206C25.2614 12.654 24.5594 11.892 24.0674 10.92C23.5754 9.93601 23.3294 8.80201 23.3294 7.51801C23.3294 6.23401 23.5754 5.10001 24.0674 4.11601C24.5594 3.13201 25.2614 2.36401 26.1734 1.81201C27.0854 1.26001 28.1774 0.984009 29.4494 0.984009C30.9614 0.984009 32.1974 1.36201 33.1574 2.11801C34.1294 2.86201 34.7354 3.91201 34.9754 5.26801H32.4374C32.2814 4.58401 31.9454 4.05001 31.4294 3.66601C30.9254 3.27001 30.2534 3.07201 29.4134 3.07201C28.2494 3.07201 27.3374 3.46801 26.6774 4.26001C26.0174 5.05201 25.6874 6.13801 25.6874 7.51801C25.6874 8.89801 26.0174 9.98401 26.6774 10.776C27.3374 11.556 28.2494 11.946 29.4134 11.946C30.2534 11.946 30.9254 11.766 31.4294 11.406C31.9454 11.034 32.2814 10.524 32.4374 9.87601H34.9754C34.7354 11.172 34.1294 12.186 33.1574 12.918C32.1974 13.65 30.9614 14.016 29.4494 14.016Z" fill="#F6F5EF"/>
<path d="M37.5549 13.8V1.20001H39.8589V6.43801H45.5109V1.20001H47.8149V13.8H45.5109V8.31001H39.8589V13.8H37.5549Z" fill="#F6F5EF"/>
<path d="M53.7379 13.8V3.05401H50.0659V1.20001H59.7319V3.05401H56.0419V13.8H53.7379Z" fill="#F6F5EF"/>
<path d="M65.9977 13.8L70.6057 1.20001H73.1977L77.8057 13.8H75.3577L74.3497 10.884H69.4357L68.4097 13.8H65.9977ZM70.0657 9.08401H73.7197L71.8837 3.84601L70.0657 9.08401Z" fill="#F6F5EF"/>
<path d="M79.9688 13.8V1.20001H84.2708C85.7468 1.20001 86.9588 1.46401 87.9068 1.99201C88.8668 2.50801 89.5748 3.24001 90.0308 4.18801C90.4988 5.12401 90.7328 6.22801 90.7328 7.50001C90.7328 8.77201 90.4988 9.88201 90.0308 10.83C89.5748 11.766 88.8668 12.498 87.9068 13.026C86.9588 13.542 85.7468 13.8 84.2708 13.8H79.9688ZM82.2728 11.82H84.1628C85.2188 11.82 86.0528 11.652 86.6648 11.316C87.2768 10.968 87.7148 10.476 87.9788 9.84001C88.2428 9.19201 88.3748 8.41201 88.3748 7.50001C88.3748 6.60001 88.2428 5.82601 87.9788 5.17801C87.7148 4.53001 87.2768 4.03201 86.6648 3.68401C86.0528 3.33601 85.2188 3.16201 84.1628 3.16201H82.2728V11.82Z" fill="#F6F5EF"/>
<path d="M96.5378 13.8L91.9298 1.20001H94.3958L97.9598 11.442L101.542 1.20001H103.972L99.3638 13.8H96.5378Z" fill="#F6F5EF"/>
<path d="M106.01 13.8V1.20001H114.236V3.05401H108.314V6.51001H113.696V8.31001H108.314V11.946H114.236V13.8H106.01Z" fill="#F6F5EF"/>
<path d="M116.956 13.8V1.20001H119.26L125.182 10.074V1.20001H127.486V13.8H125.182L119.26 4.94401V13.8H116.956Z" fill="#F6F5EF"/>
<path d="M133.403 13.8V3.05401H129.731V1.20001H139.397V3.05401H135.707V13.8H133.403Z" fill="#F6F5EF"/>
<path d="M146.503 14.016C145.579 14.016 144.745 13.836 144.001 13.476C143.257 13.104 142.663 12.546 142.219 11.802C141.787 11.058 141.571 10.116 141.571 8.97601V1.20001H143.875V8.99401C143.875 9.97801 144.109 10.71 144.577 11.19C145.057 11.67 145.717 11.91 146.557 11.91C147.385 11.91 148.039 11.67 148.519 11.19C148.999 10.71 149.239 9.97801 149.239 8.99401V1.20001H151.543V8.97601C151.543 10.116 151.315 11.058 150.859 11.802C150.403 12.546 149.791 13.104 149.023 13.476C148.267 13.836 147.427 14.016 146.503 14.016Z" fill="#F6F5EF"/>
<path d="M154.435 13.8V1.20001H159.061C160.069 1.20001 160.897 1.37401 161.545 1.72201C162.205 2.05801 162.697 2.52001 163.021 3.10801C163.345 3.68401 163.507 4.32601 163.507 5.03401C163.507 5.80201 163.303 6.50401 162.895 7.14001C162.499 7.77601 161.875 8.23801 161.023 8.52601L163.633 13.8H160.987L158.647 8.83201H156.739V13.8H154.435ZM156.739 7.14001H158.917C159.685 7.14001 160.249 6.95401 160.609 6.58201C160.969 6.21001 161.149 5.71801 161.149 5.10601C161.149 4.50601 160.969 4.02601 160.609 3.66601C160.261 3.30601 159.691 3.12601 158.899 3.12601H156.739V7.14001Z" fill="#F6F5EF"/>
<path d="M166.19 13.8V1.20001H174.416V3.05401H168.494V6.51001H173.876V8.31001H168.494V11.946H174.416V13.8H166.19Z" fill="#F6F5EF"/>
<path d="M181.438 14.016C180.514 14.016 179.698 13.86 178.99 13.548C178.282 13.224 177.724 12.768 177.316 12.18C176.908 11.58 176.698 10.854 176.686 10.002H179.116C179.14 10.59 179.35 11.088 179.746 11.496C180.154 11.892 180.712 12.09 181.42 12.09C182.032 12.09 182.518 11.946 182.878 11.658C183.238 11.358 183.418 10.962 183.418 10.47C183.418 9.95401 183.256 9.55201 182.932 9.26401C182.62 8.97601 182.2 8.74201 181.672 8.56201C181.144 8.38201 180.58 8.19001 179.98 7.98601C179.008 7.65001 178.264 7.21801 177.748 6.69001C177.244 6.16201 176.992 5.46001 176.992 4.58401C176.98 3.84001 177.154 3.20401 177.514 2.67601C177.886 2.13601 178.39 1.72201 179.026 1.43401C179.662 1.13401 180.394 0.984009 181.222 0.984009C182.062 0.984009 182.8 1.13401 183.436 1.43401C184.084 1.73401 184.588 2.15401 184.948 2.69401C185.32 3.23401 185.518 3.87601 185.542 4.62001H183.076C183.064 4.17601 182.89 3.78601 182.554 3.45001C182.23 3.10201 181.774 2.92801 181.186 2.92801C180.682 2.91601 180.256 3.04201 179.908 3.30601C179.572 3.55801 179.404 3.93001 179.404 4.42201C179.404 4.84201 179.536 5.17801 179.8 5.43001C180.064 5.67001 180.424 5.87401 180.88 6.04201C181.336 6.21001 181.858 6.39001 182.446 6.58201C183.07 6.79801 183.64 7.05001 184.156 7.33801C184.672 7.62601 185.086 8.01001 185.398 8.49001C185.71 8.95801 185.866 9.56401 185.866 10.308C185.866 10.968 185.698 11.58 185.362 12.144C185.026 12.708 184.528 13.164 183.868 13.512C183.208 13.848 182.398 14.016 181.438 14.016Z" fill="#F6F5EF"/>
</svg>
